<svg xmlns="http://www.w3.org/2000/svg" width="92" height="92" viewBox="0 0 92 92" fill="none">
  <path fill-rule="evenodd" clip-rule="evenodd"
    d="M45.2373 2.14407C45.2373 2.77331 45.0657 3.28814 44.8559 3.28814C44.6462 3.28814 44.4746 3.80297 44.4746 4.4322C44.4746 5.06144 44.303 5.57627 44.0932 5.57627C43.8835 5.57627 43.7119 6.0911 43.7119 6.72034C43.7119 7.34958 43.5403 7.86441 43.3305 7.86441C43.1208 7.86441 42.9492 8.37924 42.9492 9.00847C42.9492 9.63771 42.7775 10.1525 42.5678 10.1525C42.3581 10.1525 42.1864 10.6674 42.1864 11.2966C42.1864 11.9258 42.0148 12.4407 41.8051 12.4407C41.5953 12.4407 41.4237 12.9555 41.4237 13.5847C41.4237 14.214 41.2521 14.7288 41.0424 14.7288C40.8326 14.7288 40.661 15.072 40.661 15.4915C40.661 15.911 40.4894 16.2542 40.2797 16.2542C40.0699 16.2542 39.8983 16.7691 39.8983 17.3983C39.8983 18.0275 39.7267 18.5424 39.517 18.5424C39.3072 18.5424 39.1356 19.0572 39.1356 19.6864C39.1356 20.3157 38.964 20.8305 38.7542 20.8305C38.5445 20.8305 38.3729 21.1737 38.3729 21.5932C38.3729 22.5958 37.1888 22.5958 36.4661 21.5932C36.1637 21.1737 35.6489 20.8305 35.322 20.8305C34.9952 20.8305 34.4804 20.4873 34.178 20.0678C33.8756 19.6483 33.3607 19.3051 33.0339 19.3051C32.7071 19.3051 32.1922 18.9619 31.8898 18.5424C31.5874 18.1229 31.0726 17.7797 30.7458 17.7797C30.4189 17.7797 29.9041 17.4364 29.6017 17.0169C29.2993 16.5975 28.7844 16.2542 28.4576 16.2542C28.1308 16.2542 27.616 15.911 27.3136 15.4915C27.0111 15.072 26.4963 14.7288 26.1695 14.7288C25.8427 14.7288 25.3278 14.3856 25.0254 13.9661C24.723 13.5466 24.2082 13.2034 23.8814 13.2034C23.5545 13.2034 23.0397 12.8602 22.7373 12.4407C22.4349 12.0212 21.92 11.678 21.5932 11.678C21.2664 11.678 20.7516 11.3347 20.4492 10.9153C20.1467 10.4958 19.6083 10.1525 19.2528 10.1525C18.897 10.1525 18.5294 9.93784 18.4356 9.67585C18.3368 9.3986 18.124 9.34064 17.9272 9.53742C17.7305 9.73419 17.7884 9.94699 18.0657 10.0458C18.3281 10.1396 18.5424 10.7166 18.5424 11.3283C18.5424 11.9403 18.714 12.4407 18.9237 12.4407C19.1335 12.4407 19.3051 12.9555 19.3051 13.5847C19.3051 14.214 19.4767 14.7288 19.6864 14.7288C19.8962 14.7288 20.0678 15.2436 20.0678 15.8729C20.0678 16.5021 20.2394 17.0169 20.4492 17.0169C20.6589 17.0169 20.8305 17.5318 20.8305 18.161C20.8305 18.7903 21.0021 19.3051 21.2119 19.3051C21.4216 19.3051 21.5932 19.8199 21.5932 20.4492C21.5932 21.0784 21.7648 21.5932 21.9746 21.5932C22.1843 21.5932 22.3559 22.1081 22.3559 22.7373C22.3559 23.3665 22.5275 23.8814 22.7373 23.8814C22.947 23.8814 23.1186 24.3962 23.1186 25.0254C23.1186 25.6547 23.2903 26.1695 23.5 26.1695C23.7097 26.1695 23.8814 26.6843 23.8814 27.3136C23.8814 27.9428 24.053 28.4576 24.2627 28.4576C24.4725 28.4576 24.6441 28.9725 24.6441 29.6017C24.6441 30.2309 24.8157 30.7458 25.0254 30.7458C25.2352 30.7458 25.4068 30.9174 25.4068 31.1271C25.4068 31.3735 21.0849 31.5085 13.2034 31.5085C6.49153 31.5085 1 31.6 1 31.7117C1 32.1423 3.66949 34.5593 4.14466 34.5593C4.42 34.5593 4.8925 34.9025 5.19492 35.322C5.49733 35.7415 5.98127 36.0847 6.27034 36.0847C6.55903 36.0847 7.27674 36.5996 7.86441 37.2288C8.45208 37.8581 9.16979 38.3729 9.45847 38.3729C9.74754 38.3729 10.2315 38.7161 10.5339 39.1356C10.8363 39.5551 11.3511 39.8983 11.678 39.8983C12.0048 39.8983 12.5196 40.2415 12.822 40.661C13.1244 41.0805 13.6084 41.4237 13.8975 41.4237C14.1861 41.4237 14.9039 41.9386 15.4915 42.5678C16.0792 43.197 16.7969 43.7119 17.0856 43.7119C17.3747 43.7119 17.8586 44.0551 18.161 44.4746C18.4634 44.8941 19.016 45.2373 19.3894 45.2373C19.8134 45.2373 20.0678 45.5229 20.0678 46C20.0678 46.4771 19.8134 46.7627 19.3894 46.7627C19.016 46.7627 18.4634 47.1059 18.161 47.5254C17.8586 47.9449 17.3747 48.2881 17.0856 48.2881C16.7969 48.2881 16.0792 48.803 15.4915 49.4322C14.9039 50.0614 14.1861 50.5763 13.8975 50.5763C13.6084 50.5763 13.1244 50.9195 12.822 51.339C12.5196 51.7585 12.0048 52.1017 11.678 52.1017C11.3511 52.1017 10.8363 52.4449 10.5339 52.8644C10.2315 53.2839 9.74754 53.6271 9.45847 53.6271C9.16979 53.6271 8.45208 54.142 7.86441 54.7712C7.27674 55.4004 6.55903 55.9153 6.27034 55.9153C5.98127 55.9153 5.49733 56.2585 5.19492 56.678C4.8925 57.0975 4.42 57.4407 4.14466 57.4407C3.66949 57.4407 1 59.8577 1 60.2883C1 60.4 6.49153 60.4915 13.2034 60.4915C21.0849 60.4915 25.4068 60.6265 25.4068 60.8729C25.4068 61.0826 25.2352 61.2542 25.0254 61.2542C24.8157 61.2542 24.6441 61.7691 24.6441 62.3983C24.6441 63.0275 24.4725 63.5424 24.2627 63.5424C24.053 63.5424 23.8814 64.0572 23.8814 64.6864C23.8814 65.3157 23.7097 65.8305 23.5 65.8305C23.2903 65.8305 23.1186 66.3453 23.1186 66.9746C23.1186 67.6038 22.947 68.1186 22.7373 68.1186C22.5275 68.1186 22.3559 68.6335 22.3559 69.2627C22.3559 69.892 22.1843 70.4068 21.9746 70.4068C21.7648 70.4068 21.5932 70.9216 21.5932 71.5508C21.5932 72.1801 21.4216 72.6949 21.2119 72.6949C21.0021 72.6949 20.8305 73.2097 20.8305 73.839C20.8305 74.4682 20.6589 74.9831 20.4492 74.9831C20.2394 74.9831 20.0678 75.4979 20.0678 76.1271C20.0678 76.7564 19.8962 77.2712 19.6864 77.2712C19.4767 77.2712 19.3051 77.786 19.3051 78.4153C19.3051 79.0445 19.1335 79.5593 18.9237 79.5593C18.714 79.5593 18.5424 80.06 18.5424 80.6717C18.5424 81.2834 18.3281 81.8604 18.0657 81.9542C17.7884 82.053 17.7305 82.2658 17.9272 82.4626C18.124 82.6594 18.3368 82.6014 18.4356 82.3242C18.5294 82.0618 18.897 81.8475 19.2528 81.8475C19.6083 81.8475 20.1467 81.5042 20.4492 81.0847C20.7516 80.6653 21.2664 80.322 21.5932 80.322C21.92 80.322 22.4349 79.9788 22.7373 79.5593C23.0397 79.1398 23.5545 78.7966 23.8814 78.7966C24.2082 78.7966 24.723 78.4534 25.0254 78.0339C25.3278 77.6144 25.8427 77.2712 26.1695 77.2712C26.4963 77.2712 27.0111 76.928 27.3136 76.5085C27.616 76.089 28.1308 75.7458 28.4576 75.7458C28.7844 75.7458 29.2993 75.4025 29.6017 74.9831C29.9041 74.5636 30.4189 74.2203 30.7458 74.2203C31.0726 74.2203 31.5874 73.8771 31.8898 73.4576C32.1922 73.0381 32.7071 72.6949 33.0339 72.6949C33.3607 72.6949 33.8756 72.3517 34.178 71.9322C34.4804 71.5127 34.9952 71.1695 35.322 71.1695C35.6489 71.1695 36.1637 70.8263 36.4661 70.4068C36.7685 69.9873 37.3211 69.6441 37.6945 69.6441C38.1185 69.6441 38.3729 69.9297 38.3729 70.4068C38.3729 70.8263 38.5445 71.1695 38.7542 71.1695C38.964 71.1695 39.1356 71.6843 39.1356 72.3136C39.1356 72.9428 39.3072 73.4576 39.517 73.4576C39.7267 73.4576 39.8983 73.9725 39.8983 74.6017C39.8983 75.2309 40.0699 75.7458 40.2797 75.7458C40.4894 75.7458 40.661 76.089 40.661 76.5085C40.661 76.928 40.8326 77.2712 41.0424 77.2712C41.2521 77.2712 41.4237 77.786 41.4237 78.4153C41.4237 79.0445 41.5953 79.5593 41.8051 79.5593C42.0148 79.5593 42.1864 80.0742 42.1864 80.7034C42.1864 81.3326 42.3581 81.8475 42.5678 81.8475C42.7775 81.8475 42.9492 82.3623 42.9492 82.9915C42.9492 83.6208 43.1208 84.1356 43.3305 84.1356C43.5403 84.1356 43.7119 84.6504 43.7119 85.2797C43.7119 85.9089 43.8835 86.4237 44.0932 86.4237C44.303 86.4237 44.4746 86.9386 44.4746 87.5678C44.4746 88.197 44.6462 88.7119 44.8559 88.7119C45.0657 88.7119 45.2373 89.2267 45.2373 89.8559C45.2373 90.7456 45.4066 91 46 91C46.5934 91 46.7627 90.7456 46.7627 89.8559C46.7627 89.2267 46.9343 88.7119 47.1441 88.7119C47.3538 88.7119 47.5254 88.197 47.5254 87.5678C47.5254 86.9386 47.697 86.4237 47.9068 86.4237C48.1165 86.4237 48.2881 85.9089 48.2881 85.2797C48.2881 84.6504 48.4597 84.1356 48.6695 84.1356C48.8792 84.1356 49.0508 83.6208 49.0508 82.9915C49.0508 82.3623 49.2225 81.8475 49.4322 81.8475C49.642 81.8475 49.8136 81.3326 49.8136 80.7034C49.8136 80.0742 49.9852 79.5593 50.1949 79.5593C50.4047 79.5593 50.5763 79.0445 50.5763 78.4153C50.5763 77.786 50.7479 77.2712 50.9576 77.2712C51.1674 77.2712 51.339 76.928 51.339 76.5085C51.339 76.089 51.5106 75.7458 51.7203 75.7458C51.9301 75.7458 52.1017 75.2309 52.1017 74.6017C52.1017 73.9725 52.2733 73.4576 52.4831 73.4576C52.6928 73.4576 52.8644 72.9428 52.8644 72.3136C52.8644 71.6843 53.036 71.1695 53.2458 71.1695C53.4555 71.1695 53.6271 70.8263 53.6271 70.4068C53.6271 69.9297 53.8815 69.6441 54.3056 69.6441C54.6789 69.6441 55.2315 69.9873 55.5339 70.4068C55.8363 70.8263 56.3511 71.1695 56.678 71.1695C57.0048 71.1695 57.5196 71.5127 57.822 71.9322C58.1245 72.3517 58.6393 72.6949 58.9661 72.6949C59.2929 72.6949 59.8078 73.0381 60.1102 73.4576C60.4126 73.8771 60.9274 74.2203 61.2542 74.2203C61.5811 74.2203 62.0959 74.5636 62.3983 74.9831C62.7007 75.4025 63.2156 75.7458 63.5424 75.7458C63.8692 75.7458 64.384 76.089 64.6864 76.5085C64.9889 76.928 65.5037 77.2712 65.8305 77.2712C66.1573 77.2712 66.6722 77.6144 66.9746 78.0339C67.277 78.4534 67.7918 78.7966 68.1186 78.7966C68.4455 78.7966 68.9603 79.1398 69.2627 79.5593C69.5651 79.9788 70.08 80.322 70.4068 80.322C70.7336 80.322 71.2484 80.6653 71.5508 81.0847C71.8533 81.5042 72.3917 81.8475 72.7472 81.8475C73.103 81.8475 73.4706 82.0618 73.5644 82.3242C73.6632 82.6014 73.876 82.6594 74.0728 82.4626C74.2695 82.2658 74.2116 82.053 73.9343 81.9542C73.6723 81.8604 73.4576 81.2834 73.4576 80.6717C73.4576 80.06 73.286 79.5593 73.0763 79.5593C72.8665 79.5593 72.6949 79.0445 72.6949 78.4153C72.6949 77.786 72.5233 77.2712 72.3136 77.2712C72.1038 77.2712 71.9322 76.7564 71.9322 76.1271C71.9322 75.4979 71.7606 74.9831 71.5508 74.9831C71.3411 74.9831 71.1695 74.4682 71.1695 73.839C71.1695 73.2097 70.9979 72.6949 70.7881 72.6949C70.5784 72.6949 70.4068 72.1801 70.4068 71.5508C70.4068 70.9216 70.2352 70.4068 70.0254 70.4068C69.8157 70.4068 69.6441 69.892 69.6441 69.2627C69.6441 68.6335 69.4725 68.1186 69.2627 68.1186C69.053 68.1186 68.8814 67.6038 68.8814 66.9746C68.8814 66.3453 68.7097 65.8305 68.5 65.8305C68.2903 65.8305 68.1186 65.3157 68.1186 64.6864C68.1186 64.0572 67.947 63.5424 67.7373 63.5424C67.5275 63.5424 67.3559 63.0275 67.3559 62.3983C67.3559 61.7691 67.1843 61.2542 66.9746 61.2542C66.7648 61.2542 66.5932 61.0826 66.5932 60.8729C66.5932 60.6265 70.9151 60.4915 78.7966 60.4915C85.5085 60.4915 91 60.4 91 60.2883C91 59.8577 88.3305 57.4407 87.8553 57.4407C87.58 57.4407 87.1075 57.0975 86.8051 56.678C86.5027 56.2585 86.0187 55.9153 85.7297 55.9153C85.441 55.9153 84.7233 55.4004 84.1356 54.7712C83.5479 54.142 82.8302 53.6271 82.5415 53.6271C82.2525 53.6271 81.7685 53.2839 81.4661 52.8644C81.1637 52.4449 80.6489 52.1017 80.322 52.1017C79.9952 52.1017 79.4804 51.7585 79.178 51.339C78.8756 50.9195 78.3916 50.5763 78.1025 50.5763C77.8139 50.5763 77.0961 50.0614 76.5085 49.4322C75.9208 48.803 75.2031 48.2881 74.9144 48.2881C74.6253 48.2881 74.1414 47.9449 73.839 47.5254C73.5366 47.1059 72.984 46.7627 72.6106 46.7627C72.1866 46.7627 71.9322 46.4771 71.9322 46C71.9322 45.5229 72.1866 45.2373 72.6106 45.2373C72.984 45.2373 73.5366 44.8941 73.839 44.4746C74.1414 44.0551 74.6253 43.7119 74.9144 43.7119C75.2031 43.7119 75.9208 43.197 76.5085 42.5678C77.0961 41.9386 77.8139 41.4237 78.1025 41.4237C78.3916 41.4237 78.8756 41.0805 79.178 40.661C79.4804 40.2415 79.9952 39.8983 80.322 39.8983C80.6489 39.8983 81.1637 39.5551 81.4661 39.1356C81.7685 38.7161 82.2525 38.3729 82.5415 38.3729C82.8302 38.3729 83.5479 37.8581 84.1356 37.2288C84.7233 36.5996 85.441 36.0847 85.7297 36.0847C86.0187 36.0847 86.5027 35.7415 86.8051 35.322C87.1075 34.9025 87.58 34.5593 87.8553 34.5593C88.3305 34.5593 91 32.1423 91 31.7117C91 31.6 85.5085 31.5085 78.7966 31.5085C70.9151 31.5085 66.5932 31.3735 66.5932 31.1271C66.5932 30.9174 66.7648 30.7458 66.9746 30.7458C67.1843 30.7458 67.3559 30.2309 67.3559 29.6017C67.3559 28.9725 67.5275 28.4576 67.7373 28.4576C67.947 28.4576 68.1186 27.9428 68.1186 27.3136C68.1186 26.6843 68.2903 26.1695 68.5 26.1695C68.7097 26.1695 68.8814 25.6547 68.8814 25.0254C68.8814 24.3962 69.053 23.8814 69.2627 23.8814C69.4725 23.8814 69.6441 23.3665 69.6441 22.7373C69.6441 22.1081 69.8157 21.5932 70.0254 21.5932C70.2352 21.5932 70.4068 21.0784 70.4068 20.4492C70.4068 19.8199 70.5784 19.3051 70.7881 19.3051C70.9979 19.3051 71.1695 18.7903 71.1695 18.161C71.1695 17.5318 71.3411 17.0169 71.5508 17.0169C71.7606 17.0169 71.9322 16.5021 71.9322 15.8729C71.9322 15.2436 72.1038 14.7288 72.3136 14.7288C72.5233 14.7288 72.6949 14.214 72.6949 13.5847C72.6949 12.9555 72.8665 12.4407 73.0763 12.4407C73.286 12.4407 73.4576 11.9403 73.4576 11.3283C73.4576 10.7166 73.6723 10.1396 73.9343 10.0458C74.2116 9.94699 74.2695 9.73419 74.0728 9.53742C73.876 9.34064 73.6632 9.3986 73.5644 9.67585C73.4706 9.93784 73.103 10.1525 72.7472 10.1525C72.3917 10.1525 71.8533 10.4958 71.5508 10.9153C71.2484 11.3347 70.7336 11.678 70.4068 11.678C70.08 11.678 69.5651 12.0212 69.2627 12.4407C68.9603 12.8602 68.4455 13.2034 68.1186 13.2034C67.7918 13.2034 67.277 13.5466 66.9746 13.9661C66.6722 14.3856 66.1573 14.7288 65.8305 14.7288C65.5037 14.7288 64.9889 15.072 64.6864 15.4915C64.384 15.911 63.8692 16.2542 63.5424 16.2542C63.2156 16.2542 62.7007 16.5975 62.3983 17.0169C62.0959 17.4364 61.5811 17.7797 61.2542 17.7797C60.9274 17.7797 60.4126 18.1229 60.1102 18.5424C59.8078 18.9619 59.2929 19.3051 58.9661 19.3051C58.6393 19.3051 58.1245 19.6483 57.822 20.0678C57.5196 20.4873 57.0048 20.8305 56.678 20.8305C56.3511 20.8305 55.8363 21.1737 55.5339 21.5932C54.8112 22.5958 53.6271 22.5958 53.6271 21.5932C53.6271 21.1737 53.4555 20.8305 53.2458 20.8305C53.036 20.8305 52.8644 20.3157 52.8644 19.6864C52.8644 19.0572 52.6928 18.5424 52.4831 18.5424C52.2733 18.5424 52.1017 18.0275 52.1017 17.3983C52.1017 16.7691 51.9301 16.2542 51.7203 16.2542C51.5106 16.2542 51.339 15.911 51.339 15.4915C51.339 15.072 51.1674 14.7288 50.9576 14.7288C50.7479 14.7288 50.5763 14.214 50.5763 13.5847C50.5763 12.9555 50.4047 12.4407 50.1949 12.4407C49.9852 12.4407 49.8136 11.9258 49.8136 11.2966C49.8136 10.6674 49.642 10.1525 49.4322 10.1525C49.2225 10.1525 49.0508 9.63771 49.0508 9.00847C49.0508 8.37924 48.8792 7.86441 48.6695 7.86441C48.4597 7.86441 48.2881 7.34958 48.2881 6.72034C48.2881 6.0911 48.1165 5.57627 47.9068 5.57627C47.697 5.57627 47.5254 5.06144 47.5254 4.4322C47.5254 3.80297 47.3538 3.28814 47.1441 3.28814C46.9343 3.28814 46.7627 2.77331 46.7627 2.14407C46.7627 1.25436 46.5934 1 46 1C45.4066 1 45.2373 1.25436 45.2373 2.14407Z"
    stroke="#C0C0C0" stroke-width="2" />
</svg>