<svg xmlns="http://www.w3.org/2000/svg" width="109" height="87" viewBox="0 0 109 87" fill="none">
  <path fill-rule="evenodd" clip-rule="evenodd"
    d="M5.56063 27.9459C8.13095 17.7933 13.3248 8.8752 20.5417 5.25609C21.8466 4.60167 22.8856 3.14343 22.2312 1.83844C21.5768 0.533459 20.6476 0.410256 19.3427 1.06468C10.4641 5.5171 4.01639 14.3082 1.15652 25.6045C-1.73254 37.016 0.793979 51.8167 11.9994 60.2449C21.2579 67.2088 30.0205 66.4919 38.8381 63.6691C41.6789 73.6757 51.5374 83.8222 63.7888 86.5063C70.9796 88.0817 92.3379 86.2599 98.8991 66.9612C99.4096 65.4596 96.5598 64.7147 95.7429 65.9246C91.7361 71.8592 80.8627 84.3651 63.3954 80.5382C53.2445 78.3143 46.1093 70.4842 43.7794 61.7021C45.7102 61.5375 46.6259 61.0088 49.4137 59.5159C60.0393 52.8558 68.312 41.8304 70.3885 33.249C71.3953 29.0883 69.9868 25.0764 68.4606 22.1904C66.9054 19.2497 64.1937 17.4429 61.0159 17.0152C54.7693 16.1744 47.5828 20.5784 42.7258 29.5254C38.3018 37.6749 35.327 48.7793 36.7798 58.7575C29.1228 61.3554 22.3407 62.1175 14.6048 56.2989C7.25819 50.7731 3.0195 37.9831 5.56063 27.9459ZM41.7935 56.8681C40.8869 48.438 43.6897 38.8309 47.3721 32.0476C51.6859 24.1012 56.7787 22.3565 59.964 22.7852C61.5022 22.9923 62.7079 23.8073 63.4405 25.1925C64.202 26.6325 64.5755 28.9483 63.7794 32.2383C62.0968 39.1916 55.2142 48.6385 45.482 54.7385C44.5981 55.2926 42.7052 56.3886 41.7935 56.8681ZM88.3061 62.5839C88.7076 63.9875 89.7729 64.56 91.1765 64.1585L103.357 61.3999L103.994 73.6714C104.041 75.1306 105.037 75.9362 106.496 75.8898C107.955 75.8434 108.954 74.1251 108.908 72.6659L108.192 58.7373C108.166 57.9229 107.766 57.1659 107.107 56.6857C106.449 56.2055 105.606 56.0558 104.823 56.2799L92.2598 59.6908C90.8562 60.0923 87.9046 61.1803 88.3061 62.5839Z"
    fill="#FFCA0E" />
</svg>