<svg xmlns="http://www.w3.org/2000/svg" width="84" height="76" viewBox="0 0 84 76" fill="none">
  <path
    d="M63 1.54927C81.2777 12.1243 42 37.9998 42 37.9998C42 37.9998 44.7226 -9.02573 63 1.54927Z"
    fill="#FFCA0E" />
  <path d="M42 37.9998C42 37.9998 81.2777 63.8756 63 74.4507C44.7226 85.0257 42 37.9998 42 37.9998Z"
    fill="#FFCA0E" />
  <path d="M42 37.9998C42 37.9998 84 16.85 84 37.9998C84 59.15 42 37.9998 42 37.9998Z"
    fill="#FFCA0E" />
  <path d="M42 37.9998C42 37.9998 2.72258 63.8756 21 74.4507C39.2777 85.0257 42 37.9998 42 37.9998Z"
    fill="#FFCA0E" />
  <path d="M42 37.9998C42 37.9998 0 16.85 0 37.9998C0 59.15 42 37.9998 42 37.9998Z" fill="#FFCA0E" />
  <path
    d="M21 1.54927C2.72256 12.1243 42 37.9998 42 37.9998C42 37.9998 39.2777 -9.02573 21 1.54927Z"
    fill="#FFCA0E" />
</svg>