<svg xmlns="http://www.w3.org/2000/svg" width="99" height="87" viewBox="0 0 99 87" fill="none">
  <path fill-rule="evenodd" clip-rule="evenodd"
    d="M68.2759 80.6593L82.3578 52.2849C83.6108 49.9485 86.8265 49.5604 88.6084 51.5306L94.7328 59.9308V48.0861C94.7328 46.9179 95.688 45.9709 96.8664 45.9709C98.0447 45.9709 99 46.9179 99 48.0861L98.2375 63.8778C98.2375 64.7543 97.6922 65.54 96.8664 65.8533C96.0406 66.1665 95.1055 65.9424 94.5153 65.2897L86.2217 55.5597L69.6016 85.427C68.2475 87.952 64.4272 87.296 64.0086 84.4666L61.5201 57.1092L28.4489 77.795C27.6893 78.2701 26.7108 78.2228 26.0015 77.6766C25.2922 77.1303 25.0038 76.2022 25.2803 75.355L33.1131 51.3542L3.07835 66.0578C2.19357 66.4909 1.1246 66.2661 0.493469 65.5141C-0.137665 64.7621 -0.16629 63.6792 0.424255 62.8954L23.4491 32.3386L3.8729 36.6147C2.9163 36.8237 1.93906 36.36 1.50311 35.4904C1.06718 34.6208 1.28454 33.5687 2.03021 32.939L23.8075 15.019C24.2789 14.6311 24.2459 13.8997 23.7415 13.5557L16.4529 8.58556C15.9649 8.12601 15.7243 7.46513 15.8037 6.80256C15.8831 6.13998 16.2732 5.5534 16.8562 5.21996L27.2387 0.283394C28.2594 -0.300362 29.5642 0.046669 30.1531 1.05853C30.7419 2.07037 29.6112 2.66085 28.5905 3.24461L21.463 7.46904L27.2387 12.9085C28.525 14.1199 28.4689 16.1691 27.1184 17.3096L7.68103 33.2798L26.3942 27.7884C29.8693 27.0293 31.5735 30.1127 29.444 32.939L9.16989 58.3576L35.5207 45.7884C37.889 44.6289 40.4984 46.8637 39.6853 49.355L31.1536 71.1012L59.7977 53.1846C62.1468 51.7152 65.2439 53.1276 65.6469 55.852L68.2759 80.6593Z"
    fill="#FFCA0E" />
</svg>