<svg xmlns="http://www.w3.org/2000/svg" width="110" height="110" viewBox="0 0 110 110" fill="none">
  <path
    d="M69.6936 48.8876C92.9157 49.6274 109.964 52.0756 109.964 54.9818C109.964 57.8879 92.9157 60.3361 69.6936 61.0759C85.5912 78.0191 95.9146 91.805 93.8596 93.8596C91.805 95.9146 78.0191 85.5912 61.0759 69.694C60.3361 92.9157 57.8879 109.964 54.9818 109.964C52.0756 109.964 49.6274 92.9157 48.8876 69.6936C31.9443 85.5912 18.1586 95.9146 16.1038 93.8596C14.0489 91.805 24.3723 78.0191 40.2694 61.0759C17.0476 60.3361 0 57.8879 0 54.9818C0 52.0756 17.0476 49.6274 40.2694 48.8876C24.3723 31.9443 14.0489 18.1587 16.1038 16.1038C18.1586 14.0489 31.9443 24.3723 48.8876 40.2697C49.6274 17.0476 52.0756 0 54.9818 0C57.8879 0 60.3361 17.0476 61.0759 40.2694C78.0191 24.3723 91.805 14.0489 93.8596 16.1038C95.9146 18.1586 85.5912 31.9443 69.6936 48.8876Z"
    fill="#FFCA0E" />
</svg>